<?xml version="1.0" encoding="UTF-8" standalone="no"?>
<svg
   version="1.0"
   width="640.000000pt"
   height="640.000000pt"
   viewBox="0 0 640.000000 640.000000"
   preserveAspectRatio="xMidYMid meet"
   id="svg51"
   sodipodi:docname="12takewondo2.svg"
   inkscape:version="1.4.3 (0d15f75042, 2025-12-25)"
   xmlns:inkscape="http://www.inkscape.org/namespaces/inkscape"
   xmlns:sodipodi="http://sodipodi.sourceforge.net/DTD/sodipodi-0.dtd"
   xmlns="http://www.w3.org/2000/svg"
   xmlns:svg="http://www.w3.org/2000/svg">
  <defs
     id="defs51">
    <clipPath id="ribbonClip" clipPathUnits="userSpaceOnUse">
      <path d="M 771,3018 c 6,-24 28,-81 50,-127 21,-46 39,-91 39,-101 0,-36 168,-279 248,-357 278,-272 624,-493 935,-597 214,-72 630,-169 967,-225 100,-17 104,-18 75,-30 -93,-39 -371,-93 -575,-111 -150,-13 -445,-13 -568,1 -137,14 -330,55 -431,91 -286,101 -587,318 -891,644 -86,91 -221,256 -218,264 4,11 353,590 355,590 1,0 7,-19 14,-42 z M 5843,2764 175,-292 -103,-123 c -208,-250 -420,-445 -644,-593 -177,-117 -312,-179 -491,-225 -331,-85 -794,-89 -1195,-10 -109,22 -288,70 -282,76 2,2 46,10 98,19 297,47 760,155 974,226 297,99 654,326 926,589 77,75 264,339 256,363 -2,6 13,47 33,91 21,44 43,98 50,120 14,43 21,58 25,53 1,-2 81,-134 178,-294 z" fill-rule="nonzero"/>
    </clipPath>
  </defs>
  <sodipodi:namedview
     id="namedview51"
     pagecolor="#ffffff"
     bordercolor="#000000"
     borderopacity="0.25"
     inkscape:showpageshadow="2"
     inkscape:pageopacity="0.0"
     inkscape:pagecheckerboard="0"
     inkscape:deskcolor="#d1d1d1"
     inkscape:document-units="pt"
     inkscape:zoom="1.3570313"
     inkscape:cx="429.24583"
     inkscape:cy="433.29879"
     inkscape:window-width="2560"
     inkscape:window-height="1367"
     inkscape:window-x="0"
     inkscape:window-y="0"
     inkscape:window-maximized="1"
     inkscape:current-layer="a73" />
  <g
     transform="translate(0.000000,640.000000) scale(0.100000,-0.100000)"
     fill="#000000"
     stroke="none"
     id="g51">
    <path
       d="M2910 6295 c-514 -50 -987 -217 -1416 -500 -497 -328 -878 -776 -1126 -1320 -237 -521 -325 -1143 -242 -1710 97 -668 398 -1274 868 -1748 504 -508 1128 -813 1851 -903 166 -20 518 -23 670 -6 395 47 693 131 1034 293 529 251 991 668 1304 1178 629 1020 609 2319 -51 3326 -129 196 -248 340 -434 520 -339 332 -711 561 -1163 717 -403 140 -865 194 -1295 153z m715 -79 c466 -72 881 -229 1250 -474 186 -124 286 -204 439 -352 356 -344 599 -724 766 -1195 182 -517 216 -1109 94 -1655 -128 -570 -405 -1073 -824 -1490 -518 -517 -1156 -814 -1894 -881 -178 -16 -511 -6 -691 21 -735 110 -1388 470 -1870 1030 -454 529 -706 1172 -731 1873 -48 1290 723 2467 1926 2940 254 100 511 161 840 201 85 10 599 -3 695 -18z"
       id="path1" />
    <a
       id="a73">
      <path
         d="m 2970,5619 c -187,-16 -330,-42 -505,-93 C 1731,5313 1138,4769 850,4046 739,3765 692,3530 683,3205 l -6,-209 -159,-265 -159,-264 22,-31 c 115,-157 408,-460 569,-588 371,-294 677,-402 1202,-424 176,-7 192,-12 266,-71 35,-28 42,-40 42,-69 0,-28 -5,-37 -27,-46 -42,-17 -336,-14 -483,6 -69,9 -147,19 -175,23 l -50,6 60,-46 c 66,-50 165,-150 165,-166 0,-17 -78,-69 -183,-122 -111,-56 -118,-71 -52,-104 34,-17 59,-20 175,-20 318,2 716,112 891,247 l 37,28 h 366 366 l 47,-34 c 181,-129 571,-236 873,-239 125,-2 200,16 220,53 12,22 18,17 -97,75 -111,55 -173,100 -173,124 0,20 117,135 180,177 22,15 39,29 37,31 -2,1 -62,-6 -133,-17 -167,-27 -487,-37 -559,-18 -42,11 -50,17 -53,39 -4,37 28,71 107,113 l 69,36 h 135 c 270,0 513,36 717,107 177,61 411,203 605,366 124,104 346,333 454,466 l 80,101 -203,338 -204,338 -11,144 c -20,241 -52,412 -112,599 -179,552 -534,1019 -1016,1335 -453,297 -1012,440 -1543,395 z m 550,-94 c 530,-84 1006,-332 1376,-718 450,-470 687,-1080 672,-1733 -3,-137 -7,-175 -21,-201 -10,-18 -22,-33 -27,-33 -10,0 -116,118 -200,223 -45,57 -56,65 -62,50 l -40,-100 -33,-81 v 201 c -1,216 -14,323 -61,512 -165,650 -675,1195 -1314,1404 -742,241 -1558,38 -2086,-521 -345,-364 -553,-870 -554,-1343 0,-59 -3,-85 -10,-75 -5,8 -11,12 -12,10 -38,-50 -195,-234 -221,-259 l -36,-33 -34,68 c -19,38 -47,109 -62,157 -15,48 -31,84 -36,81 -5,-3 -9,14 -9,38 0,61 27,322 40,393 99,529 365,1007 759,1362 398,357 832,548 1401,617 82,10 469,-3 570,-19 z m -224,-455 c 485,-33 911,-224 1244,-559 176,-176 278,-320 385,-542 116,-242 173,-477 182,-750 6,-171 -9,-389 -27,-419 -6,-10 -51,16 -172,101 -209,148 -192,138 -183,100 12,-55 -14,-194 -49,-268 -55,-114 -280,-392 -419,-519 -130,-117 -459,-320 -785,-483 -109,-55 -131,-62 -210,-70 -123,-13 -192,-2 -282,44 -212,107 -489,267 -640,368 -171,114 -231,171 -420,398 -177,213 -224,310 -225,466 v 91 l -65,-46 c -36,-26 -121,-86 -190,-134 l -125,-87 -27,54 c -24,47 -29,73 -38,194 -20,284 26,583 131,847 51,127 140,290 229,416 84,121 317,354 438,438 319,224 656,340 1047,363 28,2 52,4 55,5 3,1 68,-3 146,-8 z M 771,3018 c 6,-24 28,-81 50,-127 21,-46 39,-91 39,-101 0,-36 168,-279 248,-357 278,-272 624,-493 935,-597 214,-72 630,-169 967,-225 100,-17 104,-18 75,-30 -93,-39 -371,-93 -575,-111 -150,-13 -445,-13 -568,1 -137,14 -330,55 -431,91 -286,101 -587,318 -891,644 -86,91 -221,256 -218,264 4,11 353,590 355,590 1,0 7,-19 14,-42 z m 5072,-254 175,-292 -103,-123 c -208,-250 -420,-445 -644,-593 -177,-117 -312,-179 -491,-225 -331,-85 -794,-89 -1195,-10 -109,22 -288,70 -282,76 2,2 46,10 98,19 297,47 760,155 974,226 297,99 654,326 926,589 77,75 264,339 256,363 -2,6 13,47 33,91 21,44 43,98 50,120 14,43 21,58 25,53 1,-2 81,-134 178,-294 z M 3350,1546 c 166,-52 471,-106 599,-106 26,0 51,-3 54,-6 4,-4 -14,-20 -39,-36 -91,-57 -114,-105 -77,-158 22,-33 42,-47 122,-92 l 66,-38 h -550 l -550,-0.977 V 1282 1455 l -24,3 c -23,4 -23,3 -7,-13 24,-25 19,-148 -6,-153 -16,-3 -18,5 -18,56 0,78 -6,92 -39,92 -22,-1 -24,-2 -8,-11 14,-8 17,-24 17,-83 0,-81 0,-80 -87,-105 -32,-9 -33,-9 -33,23 0,31 3,34 43,44 l 42,11 -42,-2 c -42,-2 -43,-2 -43,30 0,32 2,33 39,33 22,0 42,4 46,9 6,10 -123,7 -133,-3 -3,-3 0,-6 6,-6 8,0 12,-24 12,-72 0,-99 5,-105 69,-83 28,9 53,21 56,26 15,23 25,4 25,-46 0,-30 5,-55 10,-55 6,0 11,8 11,18 1,9 2,22 4,27 1,6 3,27 3,48 2,30 6,37 22,37 18,0 20,-7 20,-85 l 0.6045,-85 H 2732 c -126,0 -270,3 -321,7 l -92,6 53,29 c 74,40 108,79 108,126 0,47 -18,72 -78,114 l -47,33 104,7 c 215,14 471,61 621,113 112,39 147,39 270,1 z M 1985,1219 c 55,-7 175,-13 268,-13 92,-1 167,-2 167,-3 0,-8 -115,-60 -175,-79 l -70,-23 70,-2 c 39,0 79,-2 90,-3 11,-1 117,-3 235,-4 l 215,-2 -25,-21 c -38,-30 -195,-105 -283,-134 -238,-79 -596,-126 -722,-94 -78,20 -74,30 32,85 122,62 183,108 183,137 0,15 -28,49 -82,101 l -83,79 40,-6 c 22,-4 85,-12 140,-18 z m 2491,-51 c -95,-91 -98,-112 -29,-162 26,-19 86,-53 135,-77 48,-24 88,-48 88,-52 0,-4 -17,-16 -37,-25 -54,-24 -242,-20 -403,7 -252,43 -442,104 -575,184 l -70,42 305,5 c 277,5 301,6 260,19 -62,18 -160,64 -188,87 -23,19 -21,19 195,21 120,0 241,6 268,11 28,5 67,10 89,11 l 38,1 z"
         id="path2"
         sodipodi:nodetypes="cccccccccccscccccscscccccccccscccccccsccccccccccccccscscccccccccccssssccccccccsccccccccccccccccccccscccscccccccccscccccccscccscccccsscccccccccccsccscsccssscsssccsscccsscscccscccccccscccsccccccscccccccscccccccccccc"
         style="fill:#1c2224" />
    </a>
    <!-- ===== COLOMBIA FLAG RIBBON BANDS (on top of dark path2) ===== -->
    <!-- Clipped exactly to the dark ribbon boundary from path2 -->
    <!-- Red (innermost, top of ribbon) -->
    <path d="M 186.86,403.20 A 157,157 0 1,1 453.14,403.20 L 421.77,383.59 A 120,120 0 1,0 218.23,383.59 Z"
          fill="#CE1126" clip-path="url(#ribbonClip)"/>
    <!-- Blue (middle) -->
    <path d="M 148.69,427.04 A 202,202 0 1,1 491.31,427.04 L 453.14,403.20 A 157,157 0 1,0 186.86,403.20 Z"
          fill="#003087" clip-path="url(#ribbonClip)"/>
    <!-- Yellow (outermost, bottom, widest) -->
    <path d="M 103.75,455.13 A 255,255 0 1,1 536.25,455.13 L 491.31,427.04 A 202,202 0 1,0 148.69,427.04 Z"
          fill="#FFD200" clip-path="url(#ribbonClip)"/>

    <path
       d="M3165 5423 c0 -75 -4 -106 -18 -131 l-18 -32 26 -12 c35 -16 42 -3 51 85 4 37 11 67 15 67 5 0 9 -3 9 -8 0 -10 108 -146 119 -150 4 -1 11 38 14 88 3 50 13 104 21 121 18 35 15 44 -13 52 -30 7 -40 -12 -47 -92 l-7 -73 -18 23 c-10 13 -32 50 -50 82 -25 48 -57 77 -82 77 -1 0 -2 -44 -2 -97z"
       id="path3"
       style="fill:#da281c;fill-opacity:1" />
    <path
       d="M2932 5476 c-36 -34 -37 -36 -37 -105 0 -63 3 -72 29 -100 37 -39 83 -48 125 -26 89 46 96 184 12 244 -44 31 -85 27 -129 -13z m113 -20 c63 -63 32 -213 -42 -204 -43 5 -68 50 -68 123 0 48 5 68 19 84 25 28 61 27 91 -3z"
       id="path4"
       style="fill:#da281c;fill-opacity:1" />
    <path
       d="M3452 5483 c-11 -4 -10 -8 1 -22 13 -14 13 -25 1 -86 -7 -38 -13 -91 -14 -117 l0 -48 48 6 c78 10 109 23 146 65 48 52 51 111 8 157 -36 38 -144 64 -190 45z m149 -53 c46 -25 9 -132 -56 -163 -50 -24 -68 -22 -62 6 3 12 11 55 18 95 l12 72 34 0 c19 0 43 -5 54 -10z"
       id="path5"
       style="fill:#da281c;fill-opacity:1" />
    <path
       d="M2775 5458 c4 -13 9 -63 12 -113 l4 -90 -22 35 c-97 155 -102 161 -123 158 -23 -3 -23 -6 -6 -91 6 -32 10 -70 8 -85 -3 -24 -7 -19 -38 41 -19 37 -44 79 -55 92 -20 25 -20 25 -45 6 l-24 -19 43 -47 c23 -25 55 -75 71 -110 16 -36 33 -65 38 -65 13 0 42 67 42 98 0 59 16 57 60 -8 l42 -62 19 28 c10 16 23 67 30 114 14 103 4 140 -37 140 -23 0 -25 -3 -19 -22z"
       id="path6"
       style="fill:#da281c;fill-opacity:1" />
    <path
       d="M3767 5406 c-39 -21 -65 -54 -77 -99 -15 -52 -4 -93 32 -127 68 -66 150 -38 193 65 14 32 15 45 5 81 -22 76 -92 113 -153 80z m91 -36 c16 -16 22 -32 22 -66 0 -75 -42 -134 -96 -134 -54 0 -72 48 -49 127 26 86 76 116 123 73z"
       id="path7"
       style="fill:#da281c;fill-opacity:1" />
    <path
       d="M2382 5355 c-11 -14 -23 -41 -27 -61 l-6 -37 -25 37 c-27 40 -32 42 -58 23 -17 -13 -17 -16 16 -58 18 -25 42 -67 52 -94 9 -28 23 -61 29 -75 11 -24 12 -24 15 13 2 22 -1 52 -7 68 -11 31 -1 38 19 14 15 -18 92 -55 113 -55 14 0 27 20 27 40 0 5 -19 11 -42 15 -78 13 -108 30 -108 63 0 16 7 35 15 42 8 7 15 19 15 26 0 8 9 22 19 31 11 9 18 20 15 25 -10 16 -43 7 -62 -17z"
       id="path8"
       style="fill:#da281c;fill-opacity:1" />
    <path
       d="M2118 5257 c-76 -41 -91 -58 -65 -74 7 -4 29 -37 48 -73 32 -58 84 -110 111 -110 17 0 88 78 88 97 0 14 -3 12 -13 -7 -7 -14 -25 -31 -40 -38 -24 -12 -32 -11 -52 2 -36 24 -42 56 -14 77 13 10 30 19 37 19 6 0 12 7 12 15 0 20 -8 19 -50 -6 l-34 -21 -18 22 c-27 34 -23 43 37 74 36 18 55 34 53 44 -5 26 -20 22 -100 -21z"
       id="path9"
       style="fill:#da281c;fill-opacity:1" />
    <path
       d="M4120 5273 c0 -6 18 -18 40 -28 23 -10 43 -22 46 -26 5 -9 -36 -94 -73 -151 -24 -35 -26 -68 -4 -68 9 0 81 104 110 158 15 28 29 28 61 -3 26 -25 27 -25 44 -6 17 18 16 20 -6 41 -49 46 -218 110 -218 83z"
       id="path10"
       style="fill:#da281c;fill-opacity:1" />
    <path
       d="M1916 5141 c-4 -5 0 -38 7 -74 13 -60 13 -65 -5 -76 -24 -15 -19 -46 7 -46 16 0 19 -6 17 -30 -2 -16 -10 -37 -19 -47 -19 -22 -1 -33 29 -17 36 19 48 41 46 81 -2 30 3 41 25 58 l28 22 40 -28 c36 -25 41 -26 55 -12 14 14 9 20 -48 61 -35 25 -81 61 -103 81 -39 35 -68 45 -79 27z m82 -93 c16 -16 15 -28 -2 -28 -7 0 -16 9 -19 20 -6 23 3 26 21 8z"
       id="path11"
       style="fill:#da281c;fill-opacity:1" />
    <path
       d="M4431 5059 c-43 -31 -57 -36 -73 -28 -28 15 -43 6 -43 -27 0 -28 -2 -29 -47 -28 -30 0 -45 -4 -41 -10 27 -48 70 -59 112 -30 21 15 25 15 55 -1 29 -16 32 -21 31 -69 0 -39 4 -51 15 -51 10 0 20 24 32 85 10 47 22 95 28 108 14 31 13 68 -2 79 -9 7 -29 -1 -67 -28z m12 -77 c-6 -24 -11 -26 -32 -13 -10 7 -8 12 10 24 27 20 30 18 22 -11z"
       id="path12"
       style="fill:#da281c;fill-opacity:1" />
    <path
       d="M1719 5000 c-57 -43 -119 -114 -119 -136 0 -22 14 -16 50 21 l34 35 24 -23 c13 -12 44 -50 69 -84 47 -66 50 -68 71 -54 15 9 -8 52 -81 145 -35 45 -37 50 -20 59 56 29 64 37 53 57 -15 27 -20 26 -81 -20z"
       id="path13"
       style="fill:#da281c;fill-opacity:1" />
    <path
       d="M4570 4929 c-55 -32 -75 -66 -75 -127 0 -48 4 -57 33 -83 39 -35 77 -37 133 -9 52 27 79 72 79 133 0 41 -4 52 -32 78 -39 35 -87 38 -138 8z m128 -42 c18 -37 8 -77 -31 -122 -26 -30 -41 -38 -79 -42 -43 -5 -48 -3 -59 20 -18 40 -3 89 39 129 42 41 57 48 92 45 16 -1 29 -12 38 -30z"
       id="path14"
       style="fill:#da281c;fill-opacity:1" />
    <path
       d="M1393 4675 c-29 -35 -53 -68 -53 -74 0 -6 10 -16 22 -22 12 -6 45 -31 75 -55 60 -49 94 -61 130 -48 27 10 54 69 52 114 -1 20 -2 21 -6 5 -17 -77 -48 -99 -102 -71 -38 20 -38 29 -6 68 14 16 22 35 18 41 -4 6 -18 -3 -38 -26 l-31 -36 -28 23 -29 22 28 30 c40 43 58 72 50 84 -12 20 -31 8 -82 -55z"
       id="path15"
       style="fill:#da281c;fill-opacity:1" />
    <path
       d="M4900 4680 c0 -6 14 -29 31 -50 l31 -39 -28 -25 c-16 -15 -55 -42 -86 -62 -39 -24 -58 -42 -58 -55 0 -29 29 -18 117 42 40 27 76 49 81 49 5 0 16 -16 25 -36 12 -24 23 -34 35 -32 29 6 24 32 -14 89 -51 75 -134 148 -134 119z"
       id="path16"
       style="fill:#da281c;fill-opacity:1" />
    <path
       d="M1298 4517 c-37 -17 -64 -44 -93 -93 -31 -54 -33 -78 -4 -71 15 4 39 -8 82 -40 104 -76 147 -90 147 -46 0 10 7 36 14 59 25 69 -6 159 -65 190 -33 16 -45 17 -81 1z m82 -79 c25 -34 30 -51 30 -96 0 -41 -3 -53 -13 -49 -35 13 -147 104 -147 118 0 30 40 69 71 69 22 0 36 -9 59 -42z"
       id="path17"
       style="fill:#da281c;fill-opacity:1" />
    <path
       d="M5074 4443 c-9 -10 -44 -38 -78 -63 -33 -25 -67 -57 -76 -72 -13 -25 -13 -31 0 -55 15 -26 73 -73 91 -73 5 0 9 5 9 10 0 6 -7 10 -15 10 -23 0 -55 37 -55 63 0 24 37 67 58 67 6 0 22 -16 36 -36 26 -39 44 -33 21 7 -28 49 -28 51 -4 70 13 10 27 19 30 19 4 0 22 -25 40 -55 32 -54 66 -71 63 -33 -1 15 -91 158 -99 158 -2 0 -11 -8 -21 -17z"
       id="path18"
       style="fill:#da281c;fill-opacity:1" />
    <path
       d="M1065 4126 c-32 -32 -68 -105 -61 -123 4 -11 14 -13 31 -9 18 5 50 -6 117 -39 50 -25 93 -45 95 -45 13 0 -2 29 -24 45 -62 46 -62 47 -47 83 25 57 84 29 68 -33 -7 -27 19 -46 38 -27 16 16 12 80 -7 108 -15 23 -22 26 -58 21 -34 -5 -43 -2 -59 19 -25 31 -62 31 -93 0z m67 -33 c18 -16 25 -68 10 -77 -5 -3 -25 2 -45 11 -38 18 -43 37 -18 67 17 20 30 20 53 -1z"
       id="path19"
       style="fill:#da281c;fill-opacity:1" />
    <path
       d="M5244 4088 c-20 -22 -118 -70 -167 -82 -40 -10 -22 -28 22 -22 20 2 44 8 54 11 22 9 22 0 -2 -33 -27 -38 -50 -98 -42 -109 3 -5 13 -12 23 -16 12 -4 18 3 23 31 10 55 42 122 58 122 21 0 108 -50 114 -66 8 -21 23 -6 23 22 0 20 -9 29 -42 44 -24 11 -52 20 -63 20 -19 1 -19 2 -1 13 58 37 66 47 53 68 -15 25 -29 24 -53 -3z"
       id="path20"
       style="fill:#da281c;fill-opacity:1" />
    <path
       d="M981 3936 c-10 -12 -8 -17 8 -25 11 -6 26 -11 33 -11 22 0 111 -46 136 -69 31 -30 29 -69 -4 -81 -40 -15 -84 -12 -150 11 -34 12 -70 19 -79 15 -17 -6 -17 -7 0 -26 38 -42 172 -65 229 -39 33 15 60 73 52 111 -3 17 -21 43 -38 59 -28 25 -57 37 -159 65 -9 2 -22 -2 -28 -10z"
       id="path21"
       style="fill:#da281c;fill-opacity:1" />
    <path
       d="M5320 3864 c-30 -12 -85 -30 -122 -39 -63 -16 -84 -34 -59 -49 14 -9 156 21 206 43 46 20 49 24 37 52 -6 14 -13 13 -62 -7z"
       id="path22"
       style="fill:#da281c;fill-opacity:1" />
    <path
       d="M5375 3762 c-19 -10 -65 -18 -122 -20 -89 -4 -93 -5 -93 -28 0 -30 24 -37 90 -24 84 16 84 15 24 -62 -32 -40 -62 -79 -67 -86 -17 -22 -1 -24 79 -7 44 9 99 15 124 13 42 -3 45 -1 45 22 0 22 -5 25 -42 28 -23 2 -58 -1 -78 -7 -19 -5 -37 -6 -39 -2 -3 4 24 36 59 71 49 49 65 71 65 92 0 32 -3 32 -45 10z"
       id="path23"
       style="fill:#da281c;fill-opacity:1" />
    <path
       d="M1119 3665 c0 -3 -1 -26 -1 -52 -1 -72 -4 -76 -57 -69 -25 3 -75 15 -110 26 -69 21 -81 19 -81 -10 0 -21 18 -27 143 -50 75 -14 117 -3 117 29 0 9 7 25 15 35 22 29 19 73 -5 86 -11 6 -20 8 -21 5z"
       id="path24"
       style="fill:#da281c;fill-opacity:1" />
    <path
       d="M5300 3489 c-48 -20 -80 -60 -80 -99 0 -20 5 -41 12 -48 9 -9 9 -15 0 -24 -33 -33 9 -48 78 -29 37 10 34 46 -3 47 -48 2 -63 48 -26 82 43 41 145 33 175 -14 19 -28 15 -34 -28 -49 -45 -15 -46 -32 -1 -37 51 -7 60 3 62 62 0 42 -4 55 -27 82 -24 26 -37 32 -83 34 -30 2 -65 -1 -79 -7z"
       id="path25"
       style="fill:#da281c;fill-opacity:1" />
    <path
       d="M864 3469 c-8 -9 -18 -35 -21 -57 -4 -33 -1 -44 26 -75 74 -84 227 -60 247 39 6 32 -25 84 -52 84 -16 0 -19 -36 -4 -45 17 -11 11 -43 -12 -59 -55 -39 -178 4 -178 62 0 13 9 17 42 17 59 0 64 27 9 41 -35 10 -43 9 -57 -7z"
       id="path26"
       style="fill:#da281c;fill-opacity:1" />
    <path
       d="M3060 4763 c-171 -18 -352 -73 -511 -154 -382 -197 -649 -550 -741 -982 -17 -82 -21 -135 -21 -272 0 -255 41 -424 154 -646 398 -773 1399 -1008 2094 -491 529 394 716 1083 460 1694 -162 387 -523 699 -931 808 -151 40 -363 58 -504 43z m1029 -592 c14 -21 31 -258 31 -416 0 -424 -107 -829 -292 -1106 -129 -192 -341 -376 -543 -470 -79 -37 -99 -35 -208 21 -126 64 -225 138 -337 250 -269 269 -427 647 -471 1120 -12 139 -8 588 7 611 10 18 1802 8 1813 -10z"
       id="path27"
       style="fill:#008000" />
    <path
       d="M3070 4142 c-100 -50 -108 -191 -13 -231 15 -6 48 -15 73 -19 45 -8 45 -8 43 -46 -6 -97 -47 -166 -98 -166 -52 0 -95 27 -115 72 -11 24 -20 55 -20 71 0 15 -5 27 -11 27 -18 0 -3 -87 21 -125 20 -33 80 -65 121 -65 62 0 99 50 121 161 l13 64 62 -1 c40 -1 71 -7 88 -18 34 -23 65 -74 65 -109 0 -37 -45 -82 -98 -98 -39 -11 -57 -29 -29 -29 27 0 117 50 133 74 20 32 14 97 -13 135 -30 40 -99 71 -160 71 -53 0 -53 0 -53 32 0 46 37 116 71 133 66 35 124 6 150 -73 17 -55 33 -66 24 -17 -13 74 -65 125 -127 125 -70 0 -138 -86 -138 -174 0 -21 -5 -26 -26 -26 -112 0 -171 75 -129 164 19 40 45 56 106 63 27 3 49 10 49 14 0 16 -74 10 -110 -9z"
       id="path28" />
    <path
       d="M3115 3473 c8 -18 8 -63 1 -70 -2 -2 -30 7 -62 21 -38 15 -63 21 -69 15 -14 -14 8 -43 36 -47 27 -5 69 -46 60 -60 -3 -5 -33 -13 -67 -17 -72 -8 -73 -8 -101 -62 -17 -32 -23 -58 -22 -105 l1 -63 13 61 c16 72 38 119 60 128 29 11 90 7 109 -7 18 -13 18 -15 0 -43 -19 -29 -19 -29 23 6 24 19 43 38 43 43 1 31 98 -29 154 -95 20 -23 36 -38 36 -33 0 20 -66 103 -107 133 -23 18 -43 39 -43 47 0 22 47 19 82 -6 41 -29 47 -17 6 14 -47 35 -97 59 -108 52 -7 -4 -8 14 -4 49 7 56 7 56 -21 56 -22 0 -26 -3 -20 -17z m33 -112 c3 -8 -1 -12 -9 -9 -7 2 -15 10 -17 17 -3 8 1 12 9 9 7 -2 15 -10 17 -17z"
       id="path29" />
    <path
       d="M3546 3481 c-3 -5 1 -11 9 -15 8 -3 15 -13 15 -22 0 -11 6 -15 20 -11 15 4 20 0 20 -16 0 -18 2 -19 10 -7 16 25 11 59 -9 70 -24 12 -58 13 -65 1z"
       id="path30" />
    <path
       d="M2828 3379 c-23 -13 -24 -68 -2 -95 15 -18 15 -18 9 3 -5 18 -3 22 10 17 13 -5 15 -2 10 19 -6 22 -3 27 19 33 15 3 25 11 23 18 -5 15 -48 18 -69 5z"
       id="path31" />
    <path
       d="M3460 3383 c-8 -3 -29 -19 -46 -35 -23 -21 -30 -35 -26 -54 6 -33 28 -30 47 6 18 34 59 65 75 55 5 -3 10 -23 10 -43 1 -41 16 -27 21 18 5 52 -26 73 -81 53z"
       id="path32" />
    <path
       d="M3627 3341 c-7 -33 -63 -72 -140 -97 l-42 -14 49 5 c26 3 75 17 106 31 32 14 63 23 69 19 6 -3 11 -24 11 -46 0 -47 -37 -93 -66 -82 -14 5 -16 2 -10 -23 4 -16 10 -31 13 -34 2 -3 27 19 55 48 45 47 50 57 45 86 -4 27 -70 136 -82 136 -1 0 -5 -13 -8 -29z"
       id="path33" />
    <path
       d="M3322 3313 c2 -10 13 -19 26 -21 24 -4 29 7 10 26 -18 18 -40 15 -36 -5z"
       id="path34" />
    <path
       d="M2797 3231 c-14 -17 -27 -48 -31 -77 -5 -43 -3 -50 21 -75 28 -28 57 -37 67 -20 3 4 -10 24 -29 44 -36 37 -42 52 -26 61 5 3 14 -7 21 -23 6 -16 23 -34 36 -40 l25 -11 -26 35 c-27 34 -28 49 -9 118 8 27 -21 20 -49 -12z"
       id="path35" />
    <path
       d="M3410 3211 c0 -11 -13 -42 -30 -68 -16 -26 -30 -54 -30 -62 1 -9 13 8 27 37 14 28 29 52 33 52 4 0 12 -10 17 -23 6 -13 18 -24 27 -24 13 0 13 5 -4 32 -11 18 -20 39 -20 48 0 9 -4 19 -10 22 -5 3 -10 -3 -10 -14z"
       id="path36" />
    <path
       d="M3533 3193 c-18 -7 -16 -30 2 -37 22 -8 46 4 43 23 -3 16 -24 23 -45 14z"
       id="path37" />
    <path
       d="M3427 3046 c-7 -55 -4 -77 9 -64 3 3 4 32 2 64 l-3 59 -8 -59z"
       id="path38" />
    <path
       d="M3014 3039 c-3 -6 -19 -19 -36 -29 -23 -13 -38 -16 -66 -9 -45 10 -50 6 -18 -14 23 -16 24 -18 18 -126 -3 -80 -2 -111 7 -111 7 0 11 32 12 98 l2 97 11 -108 c6 -60 14 -106 18 -102 4 4 5 28 3 54 -3 25 -7 74 -9 108 l-6 62 48 45 c26 25 42 46 35 46 -6 0 -15 -5 -19 -11z"
       id="path39" />
    <path
       d="M3468 3030 c-4 -14 -8 -38 -9 -55 -1 -39 -22 -98 -37 -103 -6 -2 -18 18 -26 45 l-15 48 0 -72 -1 -71 47 -10 c26 -6 49 -9 51 -8 1 2 1 59 0 127 -2 74 -6 114 -10 99z"
       id="path40" />
    <path
       d="M3105 2949 c54 -107 45 -126 -55 -106 -31 7 -28 4 21 -22 31 -17 81 -53 111 -80 31 -28 62 -51 70 -51 23 0 79 64 72 83 -3 9 -37 38 -76 64 -46 31 -87 71 -120 115 -27 38 -52 68 -54 68 -2 0 12 -32 31 -71z"
       id="path41" />
    <path
       d="M2723 2938 l-53 -30 0 -68 c0 -37 -3 -80 -6 -96 l-5 -29 60 0 61 -1 -6 46 c-7 50 0 60 51 78 29 10 29 10 -17 11 -36 1 -53 -5 -76 -24 -61 -51 -53 31 9 97 54 59 54 59 -18 16z"
       id="path42" />
    <path
       d="M3449 2757 c-9 -7 -18 -24 -21 -40 -5 -23 -1 -30 28 -43 43 -20 63 -10 36 20 -11 11 -22 33 -24 48 -2 22 -5 25 -19 15z"
       id="path43" />
    <path
       d="M3333 2733 c-9 -3 -10 -10 -3 -23 6 -11 9 -24 8 -31 -4 -17 15 -21 35 -6 10 7 16 19 12 27 -7 20 -37 38 -52 33z"
       id="path44" />
    <path
       d="M2708 2681 c-9 -10 -24 -24 -34 -29 -33 -18 -7 -25 45 -11 52 13 55 16 45 43 -8 22 -36 20 -56 -3z"
       id="path45" />
    <path
       d="M3280 1450 c0 -5 7 -10 15 -10 12 0 15 -15 15 -75 0 -80 0 -80 -59 -75 -14 1 -21 -2 -17 -9 4 -6 23 -11 42 -11 31 0 34 -3 34 -29 0 -17 4 -32 9 -35 14 -9 21 33 21 140 0 97 -1 102 -22 108 -32 8 -38 7 -38 -4z"
       id="path46"
       style="fill:#da281c;fill-opacity:1" />
    <path
       d="M3645 1418 c-16 -5 -66 -7 -110 -4 -44 2 -72 2 -63 -1 19 -5 26 -24 30 -83 l3 -35 103 -3 c60 -2 102 1 102 7 0 6 -38 7 -96 4 l-95 -6 3 49 3 49 82 5 c45 3 85 8 88 12 11 11 -20 15 -50 6z"
       id="path47"
       style="fill:#da281c;fill-opacity:1" />
    <path
       d="M3172 1413 c-45 -3 -70 -8 -66 -14 3 -6 29 -7 65 -3 56 6 59 6 59 -15 0 -51 -16 -61 -92 -61 -65 0 -70 -1 -52 -15 13 -9 31 -12 57 -8 32 5 36 3 31 -11 -3 -9 -3 -24 0 -33 6 -15 8 -15 16 -3 6 8 10 25 10 36 0 15 8 24 24 28 15 4 25 13 24 24 0 9 3 32 7 50 4 17 4 31 -1 30 -5 -1 -42 -4 -82 -5z"
       id="path48"
       style="fill:#da281c;fill-opacity:1" />
    <path
       d="M3568 1254 c6 -3 12 -22 12 -41 l0 -36 -77 5 c-67 5 -74 4 -57 -9 10 -8 28 -12 39 -9 11 3 78 6 148 6 93 0 126 3 121 11 -5 8 -29 10 -75 5 l-68 -6 -3 37 c-3 32 -7 38 -28 40 -14 1 -19 0 -12 -3z"
       id="path50"
       style="fill:#da281c;fill-opacity:1" />
    <path
       d="M3163 1209 c9 -5 17 -20 17 -32 0 -13 5 -28 12 -35 14 -14 164 -17 173 -3 10 17 -11 21 -77 13 -36 -5 -70 -6 -76 -4 -7 2 -12 19 -12 38 0 31 -3 34 -27 34 -24 -1 -25 -2 -10 -11z"
       id="path51"
       style="fill:#da281c;fill-opacity:1" />
    <ellipse
       style="fill:none;fill-opacity:1;stroke-width:7.5"
       id="path53"
       cx="508.46289"
       cy="-6057.3403"
       transform="scale(1,-1)"
       rx="210.01727"
       ry="110.53541" />
  </g>
</svg>
